<svg width="455" height="49" viewBox="0 0 455 49" fill="none" xmlns="http://www.w3.org/2000/svg">
<path d="M28.7955 1.45454H38.6364V31.6818C38.6364 35.0758 37.8258 38.0455 36.2045 40.5909C34.5985 43.1364 32.3485 45.1212 29.4545 46.5455C26.5606 47.9545 23.1894 48.6591 19.3409 48.6591C15.4773 48.6591 12.0985 47.9545 9.20455 46.5455C6.31061 45.1212 4.06061 43.1364 2.45455 40.5909C0.848485 38.0455 0.0454545 35.0758 0.0454545 31.6818V1.45454H9.88636V30.8409C9.88636 32.6136 10.2727 34.1894 11.0455 35.5682C11.8333 36.947 12.9394 38.0303 14.3636 38.8182C15.7879 39.6061 17.447 40 19.3409 40C21.25 40 22.9091 39.6061 24.3182 38.8182C25.7424 38.0303 26.8409 36.947 27.6136 35.5682C28.4015 34.1894 28.7955 32.6136 28.7955 30.8409V1.45454ZM85.6648 1.45454V48H77.1648L56.9148 18.7045H56.5739V48H46.733V1.45454H55.3693L75.4602 30.7273H75.8693V1.45454H85.6648ZM103.636 1.45454V48H93.7955V1.45454H103.636ZM111.733 48V1.45454H143.097V9.56818H121.574V20.6591H141.483V28.7727H121.574V39.8864H143.188V48H111.733ZM159.33 1.45454L170.58 36.8182H171.011L182.284 1.45454H193.193L177.148 48H164.466L148.398 1.45454H159.33ZM198.795 48V1.45454H230.159V9.56818H208.636V20.6591H228.545V28.7727H208.636V39.8864H230.25V48H198.795ZM276.915 1.45454V48H268.415L248.165 18.7045H247.824V48H237.983V1.45454H246.619L266.71 30.7273H267.119V1.45454H276.915ZM283.273 9.56818V1.45454H321.5V9.56818H307.25V48H297.523V9.56818H283.273ZM327.795 48V1.45454H346.159C349.689 1.45454 352.697 2.12879 355.182 3.47727C357.667 4.81061 359.561 6.66667 360.864 9.04545C362.182 11.4091 362.841 14.1364 362.841 17.2273C362.841 20.3182 362.174 23.0455 360.841 25.4091C359.508 27.7727 357.576 29.6136 355.045 30.9318C352.53 32.25 349.485 32.9091 345.909 32.9091H334.205V25.0227H344.318C346.212 25.0227 347.773 24.697 349 24.0455C350.242 23.3788 351.167 22.4621 351.773 21.2955C352.394 20.1136 352.705 18.7576 352.705 17.2273C352.705 15.6818 352.394 14.3333 351.773 13.1818C351.167 12.0151 350.242 11.1136 349 10.4773C347.758 9.82576 346.182 9.5 344.273 9.5H337.636V48H327.795ZM369.233 48V1.45454H387.597C391.112 1.45454 394.112 2.08333 396.597 3.34091C399.097 4.58333 400.998 6.34848 402.301 8.63636C403.619 10.9091 404.278 13.5833 404.278 16.6591C404.278 19.75 403.612 22.4091 402.278 24.6364C400.945 26.8485 399.013 28.5455 396.483 29.7273C393.968 30.9091 390.922 31.5 387.347 31.5H375.051V23.5909H385.756C387.634 23.5909 389.195 23.3333 390.438 22.8182C391.68 22.303 392.604 21.5303 393.21 20.5C393.831 19.4697 394.142 18.1894 394.142 16.6591C394.142 15.1136 393.831 13.8106 393.21 12.75C392.604 11.6894 391.672 10.8864 390.415 10.3409C389.172 9.7803 387.604 9.5 385.71 9.5H379.074V48H369.233ZM394.369 26.8182L405.938 48H395.074L383.756 26.8182H394.369ZM454.006 24.7273C454.006 29.803 453.044 34.1212 451.119 37.6818C449.21 41.2424 446.604 43.9621 443.301 45.8409C440.013 47.7045 436.316 48.6364 432.21 48.6364C428.074 48.6364 424.362 47.697 421.074 45.8182C417.786 43.9394 415.188 41.2197 413.278 37.6591C411.369 34.0985 410.415 29.7879 410.415 24.7273C410.415 19.6515 411.369 15.3333 413.278 11.7727C415.188 8.21212 417.786 5.5 421.074 3.63636C424.362 1.75757 428.074 0.81818 432.21 0.81818C436.316 0.81818 440.013 1.75757 443.301 3.63636C446.604 5.5 449.21 8.21212 451.119 11.7727C453.044 15.3333 454.006 19.6515 454.006 24.7273ZM444.028 24.7273C444.028 21.4394 443.536 18.6667 442.551 16.4091C441.581 14.1515 440.21 12.4394 438.438 11.2727C436.665 10.1061 434.589 9.52273 432.21 9.52273C429.831 9.52273 427.756 10.1061 425.983 11.2727C424.21 12.4394 422.831 14.1515 421.847 16.4091C420.877 18.6667 420.392 21.4394 420.392 24.7273C420.392 28.0152 420.877 30.7879 421.847 33.0455C422.831 35.303 424.21 37.0152 425.983 38.1818C427.756 39.3485 429.831 39.9318 432.21 39.9318C434.589 39.9318 436.665 39.3485 438.438 38.1818C440.21 37.0152 441.581 35.303 442.551 33.0455C443.536 30.7879 444.028 28.0152 444.028 24.7273Z" fill="#4277FF"/>
</svg>
