<svg width="228" height="25" viewBox="0 0 228 25" fill="none" xmlns="http://www.w3.org/2000/svg">
<path d="M14.3977 0.727272H19.3182V15.8409C19.3182 17.5379 18.9129 19.0227 18.1023 20.2955C17.2992 21.5682 16.1742 22.5606 14.7273 23.2727C13.2803 23.9773 11.5947 24.3295 9.67045 24.3295C7.73864 24.3295 6.04924 23.9773 4.60227 23.2727C3.1553 22.5606 2.0303 21.5682 1.22727 20.2955C0.424242 19.0227 0.0227273 17.5379 0.0227273 15.8409V0.727272H4.94318V15.4205C4.94318 16.3068 5.13636 17.0947 5.52273 17.7841C5.91667 18.4735 6.4697 19.0152 7.18182 19.4091C7.89394 19.803 8.72348 20 9.67045 20C10.625 20 11.4545 19.803 12.1591 19.4091C12.8712 19.0152 13.4205 18.4735 13.8068 17.7841C14.2008 17.0947 14.3977 16.3068 14.3977 15.4205V0.727272ZM42.8324 0.727272V24H38.5824L28.4574 9.35227H28.2869V24H23.3665V0.727272H27.6847L37.7301 15.3636H37.9347V0.727272H42.8324ZM51.8182 0.727272V24H46.8977V0.727272H51.8182ZM55.8665 24V0.727272H71.5483V4.78409H60.7869V10.3295H70.7415V14.3864H60.7869V19.9432H71.5938V24H55.8665ZM79.6648 0.727272L85.2898 18.4091H85.5057L91.142 0.727272H96.5966L88.5739 24H82.233L74.1989 0.727272H79.6648ZM99.3977 24V0.727272H115.08V4.78409H104.318V10.3295H114.273V14.3864H104.318V19.9432H115.125V24H99.3977ZM138.457 0.727272V24H134.207L124.082 9.35227H123.912V24H118.991V0.727272H123.31L133.355 15.3636H133.56V0.727272H138.457ZM141.636 4.78409V0.727272H160.75V4.78409H153.625V24H148.761V4.78409H141.636ZM163.898 24V0.727272H173.08C174.845 0.727272 176.348 1.06439 177.591 1.73864C178.833 2.4053 179.78 3.33333 180.432 4.52273C181.091 5.70454 181.42 7.06818 181.42 8.61364C181.42 10.1591 181.087 11.5227 180.42 12.7045C179.754 13.8864 178.788 14.8068 177.523 15.4659C176.265 16.125 174.742 16.4545 172.955 16.4545H167.102V12.5114H172.159C173.106 12.5114 173.886 12.3485 174.5 12.0227C175.121 11.6894 175.583 11.2311 175.886 10.6477C176.197 10.0568 176.352 9.37879 176.352 8.61364C176.352 7.84091 176.197 7.16667 175.886 6.59091C175.583 6.00757 175.121 5.55682 174.5 5.23864C173.879 4.91288 173.091 4.75 172.136 4.75H168.818V24H163.898ZM184.616 24V0.727272H193.798C195.556 0.727272 197.056 1.04167 198.298 1.67045C199.548 2.29167 200.499 3.17424 201.151 4.31818C201.81 5.45454 202.139 6.79167 202.139 8.32955C202.139 9.875 201.806 11.2045 201.139 12.3182C200.473 13.4242 199.507 14.2727 198.241 14.8636C196.984 15.4545 195.461 15.75 193.673 15.75H187.526V11.7955H192.878C193.817 11.7955 194.598 11.6667 195.219 11.4091C195.84 11.1515 196.302 10.7652 196.605 10.25C196.916 9.73485 197.071 9.0947 197.071 8.32955C197.071 7.55682 196.916 6.9053 196.605 6.375C196.302 5.8447 195.836 5.44318 195.207 5.17045C194.586 4.89015 193.802 4.75 192.855 4.75H189.537V24H184.616ZM197.185 13.4091L202.969 24H197.537L191.878 13.4091H197.185ZM227.003 12.3636C227.003 14.9015 226.522 17.0606 225.56 18.8409C224.605 20.6212 223.302 21.9811 221.651 22.9205C220.007 23.8523 218.158 24.3182 216.105 24.3182C214.037 24.3182 212.181 23.8485 210.537 22.9091C208.893 21.9697 207.594 20.6098 206.639 18.8295C205.685 17.0492 205.207 14.8939 205.207 12.3636C205.207 9.82576 205.685 7.66667 206.639 5.88636C207.594 4.10606 208.893 2.75 210.537 1.81818C212.181 0.878787 214.037 0.40909 216.105 0.40909C218.158 0.40909 220.007 0.878787 221.651 1.81818C223.302 2.75 224.605 4.10606 225.56 5.88636C226.522 7.66667 227.003 9.82576 227.003 12.3636ZM222.014 12.3636C222.014 10.7197 221.768 9.33333 221.276 8.20455C220.791 7.07576 220.105 6.2197 219.219 5.63636C218.332 5.05303 217.295 4.76136 216.105 4.76136C214.916 4.76136 213.878 5.05303 212.991 5.63636C212.105 6.2197 211.416 7.07576 210.923 8.20455C210.438 9.33333 210.196 10.7197 210.196 12.3636C210.196 14.0076 210.438 15.3939 210.923 16.5227C211.416 17.6515 212.105 18.5076 212.991 19.0909C213.878 19.6742 214.916 19.9659 216.105 19.9659C217.295 19.9659 218.332 19.6742 219.219 19.0909C220.105 18.5076 220.791 17.6515 221.276 16.5227C221.768 15.3939 222.014 14.0076 222.014 12.3636Z" fill="#4277FF"/>
</svg>
